Coordinates
version=1
nRows=49
nColumns=12
inDegrees=yes

Units are S.I. units (second, meters, Newtons, ...)
Angles are in degrees

endheader
time	SC_y	SC_z	SC_x	AC_y	AC_z	AC_x	GH_y	GH_z	GH_yy	EL_x	PS_y
       0.0              -55.34          25.09          3.319          51.03          -15.8          14.85          154.2          38.13         -134.2          78.79          74.58
   0.00494              -55.34          25.09           3.32          51.03          -15.8          14.85          154.2          38.12         -134.2          78.78          74.58
  0.009881              -55.33           25.1          3.321          51.03         -15.79          14.85          154.2          38.12         -134.2          78.77          74.58
   0.01482              -55.33           25.1          3.323          51.03         -15.79          14.85          154.2          38.11         -134.2          78.75          74.58
   0.01976              -55.32           25.1          3.324          51.04         -15.79          14.85          154.2           38.1         -134.2          78.74          74.59
    0.0247              -55.31           25.1          3.326          51.04         -15.78          14.85          154.2           38.1         -134.2          78.73          74.59
   0.02964              -55.31           25.1          3.328          51.04         -15.78          14.85          154.2          38.09         -134.2          78.71          74.59
   0.03458               -55.3           25.1           3.33          51.04         -15.77          14.85          154.2          38.08         -134.2           78.7           74.6
   0.03952              -55.29           25.1          3.332          51.05         -15.77          14.85          154.1          38.07         -134.2          78.68           74.6
   0.04446              -55.28           25.1          3.334          51.05         -15.76          14.85          154.1          38.06         -134.2          78.67           74.6
    0.0494              -55.27          25.11          3.336          51.05         -15.76          14.85          154.1          38.05         -134.2          78.65          74.61
   0.05435              -55.26          25.11          3.339          51.05         -15.75          14.85          154.1          38.04         -134.2          78.63          74.61
   0.05929              -55.25          25.11          3.341          51.06         -15.75          14.85          154.1          38.02         -134.2          78.61          74.61
   0.06423              -55.24          25.11          3.344          51.06         -15.74          14.85          154.1          38.01         -134.2          78.58          74.62
   0.06917              -55.22          25.11          3.347          51.06         -15.73          14.85          154.1           38.0         -134.2          78.56          74.62
   0.07411              -55.21          25.12          3.351          51.07         -15.72          14.85          154.0          37.98         -134.2          78.53          74.63
   0.07905              -55.19          25.12          3.354          51.07         -15.71          14.85          154.0          37.96         -134.2           78.5          74.64
   0.08399              -55.18          25.12          3.359          51.08         -15.71          14.85          154.0          37.94         -134.1          78.47          74.64
   0.08893              -55.16          25.13          3.363          51.08         -15.69          14.85          154.0          37.92         -134.1          78.43          74.65
   0.09387              -55.14          25.13          3.368          51.09         -15.68          14.85          154.0           37.9         -134.1           78.4          74.66
   0.09881              -55.12          25.13          3.373           51.1         -15.67          14.85          153.9          37.87         -134.1          78.35          74.67
    0.1037              -55.09          25.14          3.379           51.1         -15.66          14.85          153.9          37.85         -134.1          78.31          74.68
    0.1087              -55.06          25.14          3.385          51.11         -15.64          14.85          153.9          37.82         -134.1          78.26          74.69
    0.1136              -55.03          25.15          3.392          51.12         -15.63          14.85          153.8          37.78         -134.1           78.2           74.7
    0.1186               -55.0          25.15            3.4          51.13         -15.61          14.85          153.8          37.75         -134.1          78.14          74.71
    0.1235              -54.96          25.16          3.409          51.14         -15.59          14.85          153.7           37.7         -134.0          78.06          74.73
    0.1285              -54.92          25.17          3.419          51.15         -15.56          14.85          153.7          37.66         -134.0          77.99          74.74
    0.1334              -54.87          25.17           3.43          51.17         -15.54          14.85          153.6           37.6         -134.0           77.9          74.76
    0.1383              -54.82          25.18          3.443          51.18         -15.51          14.85          153.6          37.55         -134.0           77.8          74.78
    0.1433              -54.76          25.19          3.457           51.2         -15.47          14.85          153.5          37.48         -133.9          77.68          74.81
    0.1482              -54.69          25.21          3.474          51.22         -15.43          14.85          153.4           37.4         -133.9          77.55          74.83
    0.1532              -54.61          25.22          3.492          51.24         -15.39          14.85          153.3          37.31         -133.9           77.4          74.86
    0.1581              -54.52          25.23          3.514          51.27         -15.34          14.85          153.2          37.21         -133.8          77.23           74.9
     0.163              -54.41          25.25          3.539           51.3         -15.28          14.85          153.1          37.09         -133.8          77.03          74.94
     0.168              -54.29          25.27          3.569          51.34         -15.21          14.85          152.9          36.95         -133.7          76.79          74.99
    0.1729              -54.14           25.3          3.603          51.38         -15.13          14.85          152.8          36.79         -133.6          76.52          75.05
    0.1779              -53.97          25.33          3.644          51.43         -15.03          14.85          152.5          36.59         -133.5          76.19          75.11
    0.1828              -53.76          25.36          3.694          51.49         -14.92          14.85          152.3          36.36         -133.4          75.79           75.2
    0.1877              -53.51          25.41          3.754          51.56         -14.78          14.85          152.0          36.08         -133.3          75.31          75.29
    0.1927               -53.2          25.46          3.827          51.65          -14.6          14.85          151.6          35.74         -133.1          74.73          75.41
    0.1976              -52.82          25.52          3.917          51.76         -14.39          14.85          151.1          35.31         -132.9          74.01          75.56
    0.2026              -52.35          25.61          4.029           51.9         -14.13          14.85          150.6          34.78         -132.7          73.11          75.75
    0.2075              -51.75          25.71          4.171          52.07          -13.8          14.85          149.9          34.11         -132.4          71.98          75.98
    0.2124              -50.99          25.84          4.351           52.3         -13.37          14.85          148.9          33.26         -132.0          70.55          76.28
    0.2174              -50.02           26.0          4.581          52.58         -12.83          14.85          147.8          32.18         -131.5          68.71          76.66
    0.2223              -48.77          26.21          4.877          52.94         -12.14          14.84          146.2          30.78         -130.9          66.35          77.14
    0.2273              -47.17          26.49          5.254           53.4         -11.25          14.84          144.3           29.0         -130.0          63.33          77.76
    0.2322              -45.17          26.83          5.729          53.99         -10.13          14.84          141.9          26.76         -129.0          59.54          78.55
    0.2371              -42.73          27.24          6.308           54.7         -8.773          14.84          138.9          24.03         -127.8          54.92           79.5
